<svg preserveAspectRatio="none" width="100%" height="100%" overflow="visible" style="display: block;" viewBox="0 0 22 20" fill="none" xmlns="http://www.w3.org/2000/svg">
<g id="Battery" filter="url(#filter0_d_0_139)">
<path id="Battery_2" fill-rule="evenodd" clip-rule="evenodd" d="M1.51001 4.5H18.49C19.0478 4.5 19.5 4.95219 19.5 5.51V7.50005L19.51 7.5H20.49C21.0478 7.5 21.5 7.95219 21.5 8.51V10.49C21.5 11.0478 21.0478 11.5 20.49 11.5H19.51L19.5 11.5V13.49C19.5 14.0478 19.0479 14.5 18.49 14.5H1.51001C0.952209 14.5 0.5 14.0478 0.5 13.49V5.51C0.5 4.95222 0.952148 4.5 1.51001 4.5ZM19.5 10.49V8.51C19.5 8.50448 19.5045 8.5 19.51 8.5H20.49C20.4955 8.5 20.5 8.50448 20.5 8.51V10.49C20.5 10.4955 20.4955 10.5 20.49 10.5H19.51L19.5046 10.4984L19.5011 10.4945L19.5002 10.492L19.5 10.49ZM18.5 5.51V13.49C18.5 13.4955 18.4955 13.5 18.49 13.5H1.51001C1.50449 13.5 1.5 13.4955 1.5 13.49V5.51C1.5 5.50448 1.50449 5.5 1.51001 5.5H18.49C18.4955 5.5 18.5 5.50448 18.5 5.51Z" fill="var(--fill-0, white)"/>
<path id="Progress" d="M17.5 6.5H2.5V12.5H17.5V6.5Z" fill="var(--fill-0, white)"/>
</g>
<defs>
<filter id="filter0_d_0_139" x="0" y="-1" width="22" height="21" filterUnits="userSpaceOnUse" color-interpolation-filters="sRGB">
<feFlood flood-opacity="0" result="BackgroundImageFix"/>
<feColorMatrix in="SourceAlpha" type="matrix" values="0 0 0 0 0 0 0 0 0 0 0 0 0 0 0 0 0 0 127 0" result="hardAlpha"/>
<feOffset dy="-0.5"/>
<feGaussianBlur stdDeviation="0.25"/>
<feComposite in2="hardAlpha" operator="out"/>
<feColorMatrix type="matrix" values="0 0 0 0 0 0 0 0 0 0 0 0 0 0 0 0 0 0 0.4 0"/>
<feBlend mode="normal" in2="BackgroundImageFix" result="effect1_dropShadow_0_139"/>
<feBlend mode="normal" in="SourceGraphic" in2="effect1_dropShadow_0_139" result="shape"/>
</filter>
</defs>
</svg>
