<svg preserveAspectRatio="none" width="100%" height="100%" overflow="visible" style="display: block;" viewBox="0 0 28 28" fill="none" xmlns="http://www.w3.org/2000/svg">
<g id="Icon" filter="url(#filter0_d_0_237)">
<g id="Shape">
<path d="M14 18.5C16.2091 18.5 18 16.7092 18 14.5C18 12.2908 16.2091 10.5 14 10.5C11.7909 10.5 10 12.2908 10 14.5C10 16.7092 11.7909 18.5 14 18.5Z" fill="url(#paint0_linear_0_237)"/>
<path fill-rule="evenodd" clip-rule="evenodd" d="M21.4585 5H24C26.2091 5 28 6.79083 28 9V21C28 23.2092 26.2091 25 24 25H4C1.79086 25 0 23.2092 0 21V9C0 6.79083 1.79086 5 4 5H6.54147C6.77951 3.58112 8.01349 2.5 9.5 2.5H18.5C19.9865 2.5 21.2205 3.58112 21.4585 5ZM21 14.5C21 18.366 17.866 21.5 14 21.5C10.134 21.5 7 18.366 7 14.5C7 10.634 10.134 7.5 14 7.5C17.866 7.5 21 10.634 21 14.5Z" fill="url(#paint1_linear_0_237)"/>
</g>
</g>
<defs>
<filter id="filter0_d_0_237" x="0" y="-1" width="28" height="29" filterUnits="userSpaceOnUse" color-interpolation-filters="sRGB">
<feFlood flood-opacity="0" result="BackgroundImageFix"/>
<feColorMatrix in="SourceAlpha" type="matrix" values="0 0 0 0 0 0 0 0 0 0 0 0 0 0 0 0 0 0 127 0" result="hardAlpha"/>
<feOffset dy="-1"/>
<feComposite in2="hardAlpha" operator="out"/>
<feColorMatrix type="matrix" values="0 0 0 0 0 0 0 0 0 0 0 0 0 0 0 0 0 0 1 0"/>
<feBlend mode="normal" in2="BackgroundImageFix" result="effect1_dropShadow_0_237"/>
<feBlend mode="normal" in="SourceGraphic" in2="effect1_dropShadow_0_237" result="shape"/>
</filter>
<linearGradient id="paint0_linear_0_237" x1="14" y1="2.5" x2="14" y2="25" gradientUnits="userSpaceOnUse">
<stop stop-color="white"/>
<stop offset="1" stop-color="#A2A2A2"/>
</linearGradient>
<linearGradient id="paint1_linear_0_237" x1="14" y1="2.5" x2="14" y2="25" gradientUnits="userSpaceOnUse">
<stop stop-color="white"/>
<stop offset="1" stop-color="#A2A2A2"/>
</linearGradient>
</defs>
</svg>
