<svg preserveAspectRatio="none" width="100%" height="100%" overflow="visible" style="display: block;" viewBox="0 0 28 7" fill="none" xmlns="http://www.w3.org/2000/svg">
<g id="Bottom" filter="url(#filter0_ddi_0_236)">
<path d="M1 0C0.447723 0 0 0.447693 0 1C0 1.55231 0.447723 2 1 2H27C27.5523 2 28 1.55231 28 1C28 0.447693 27.5523 0 27 0H1Z" fill="var(--fill-0, black)" fill-opacity="0.6" shape-rendering="crispEdges"/>
<path d="M1 4C0.447723 4 0 4.44769 0 5C0 5.55231 0.447723 6 1 6H27C27.5523 6 28 5.55231 28 5C28 4.44769 27.5523 4 27 4H1Z" fill="var(--fill-0, black)" fill-opacity="0.6" shape-rendering="crispEdges"/>
</g>
<defs>
<filter id="filter0_ddi_0_236" x="0" y="0" width="28" height="7" filterUnits="userSpaceOnUse" color-interpolation-filters="sRGB">
<feFlood flood-opacity="0" result="BackgroundImageFix"/>
<feColorMatrix in="SourceAlpha" type="matrix" values="0 0 0 0 0 0 0 0 0 0 0 0 0 0 0 0 0 0 127 0" result="hardAlpha"/>
<feOffset dy="1"/>
<feComposite in2="hardAlpha" operator="out"/>
<feColorMatrix type="matrix" values="0 0 0 0 1 0 0 0 0 1 0 0 0 0 1 0 0 0 0.1 0"/>
<feBlend mode="normal" in2="BackgroundImageFix" result="effect1_dropShadow_0_236"/>
<feColorMatrix in="SourceAlpha" type="matrix" values="0 0 0 0 0 0 0 0 0 0 0 0 0 0 0 0 0 0 127 0" result="hardAlpha"/>
<feOffset dy="0.5"/>
<feComposite in2="hardAlpha" operator="out"/>
<feColorMatrix type="matrix" values="0 0 0 0 1 0 0 0 0 1 0 0 0 0 1 0 0 0 0.2 0"/>
<feBlend mode="normal" in2="effect1_dropShadow_0_236" result="effect2_dropShadow_0_236"/>
<feBlend mode="normal" in="SourceGraphic" in2="effect2_dropShadow_0_236" result="shape"/>
<feColorMatrix in="SourceAlpha" type="matrix" values="0 0 0 0 0 0 0 0 0 0 0 0 0 0 0 0 0 0 127 0" result="hardAlpha"/>
<feOffset dy="0.5"/>
<feComposite in2="hardAlpha" operator="arithmetic" k2="-1" k3="1"/>
<feColorMatrix type="matrix" values="0 0 0 0 0 0 0 0 0 0 0 0 0 0 0 0 0 0 0.4 0"/>
<feBlend mode="normal" in2="shape" result="effect3_innerShadow_0_236"/>
</filter>
</defs>
</svg>
