<svg preserveAspectRatio="none" width="100%" height="100%" overflow="visible" style="display: block;" viewBox="0 0 135.489 15.225" fill="none" xmlns="http://www.w3.org/2000/svg">
<path id="Label" d="M1.785 11.571C1.799 11.963 1.89 12.299 2.058 12.579C2.226 12.845 2.443 13.062 2.709 13.23C2.989 13.384 3.297 13.496 3.633 13.566C3.983 13.636 4.34 13.671 4.704 13.671C4.984 13.671 5.278 13.65 5.586 13.608C5.894 13.566 6.174 13.489 6.426 13.377C6.692 13.265 6.909 13.104 7.077 12.894C7.245 12.67 7.329 12.39 7.329 12.054C7.329 11.592 7.154 11.242 6.804 11.004C6.454 10.766 6.013 10.577 5.481 10.437C4.963 10.283 4.396 10.15 3.78 10.038C3.164 9.912 2.59 9.744 2.058 9.534C1.54 9.31 1.106 9.002 0.756 8.61C0.406 8.218 0.231 7.672 0.231 6.972C0.231 6.426 0.35 5.957 0.588 5.565C0.84 5.173 1.155 4.858 1.533 4.62C1.925 4.368 2.359 4.186 2.835 4.074C3.325 3.948 3.808 3.885 4.284 3.885C4.9 3.885 5.467 3.941 5.985 4.053C6.503 4.151 6.958 4.333 7.35 4.599C7.756 4.851 8.078 5.201 8.316 5.649C8.554 6.083 8.694 6.629 8.736 7.287H6.951C6.923 6.937 6.832 6.65 6.678 6.426C6.524 6.188 6.328 5.999 6.09 5.859C5.852 5.719 5.586 5.621 5.292 5.565C5.012 5.495 4.725 5.46 4.431 5.46C4.165 5.46 3.892 5.481 3.612 5.523C3.346 5.565 3.101 5.642 2.877 5.754C2.653 5.852 2.471 5.992 2.331 6.174C2.191 6.342 2.121 6.566 2.121 6.846C2.121 7.154 2.226 7.413 2.436 7.623C2.66 7.819 2.94 7.987 3.276 8.127C3.612 8.253 3.99 8.365 4.41 8.463C4.83 8.547 5.25 8.638 5.67 8.736C6.118 8.834 6.552 8.953 6.972 9.093C7.406 9.233 7.784 9.422 8.106 9.66C8.442 9.884 8.708 10.171 8.904 10.521C9.114 10.871 9.219 11.305 9.219 11.823C9.219 12.481 9.079 13.027 8.799 13.461C8.533 13.895 8.176 14.245 7.728 14.511C7.294 14.777 6.797 14.959 6.237 15.057C5.691 15.169 5.145 15.225 4.599 15.225C3.997 15.225 3.423 15.162 2.877 15.036C2.331 14.91 1.848 14.707 1.428 14.427C1.008 14.133 0.672 13.755 0.42 13.293C0.168 12.817 0.028 12.243 5.58794e-09 11.571H1.785ZM11.298 -5.96046e-08H13.083V14.994H11.298V-5.96046e-08ZM17.7383 2.184H15.9533V-5.96046e-08H17.7383V2.184ZM15.9533 4.137H17.7383V14.994H15.9533V4.137ZM21.8055 9.66C21.8055 10.164 21.8685 10.661 21.9945 11.151C22.1345 11.627 22.3375 12.054 22.6035 12.432C22.8835 12.81 23.2335 13.111 23.6535 13.335C24.0875 13.559 24.5915 13.671 25.1655 13.671C25.7675 13.671 26.2785 13.552 26.6985 13.314C27.1185 13.076 27.4615 12.768 27.7275 12.39C27.9935 11.998 28.1825 11.557 28.2945 11.067C28.4205 10.577 28.4835 10.08 28.4835 9.576C28.4835 9.044 28.4205 8.533 28.2945 8.043C28.1685 7.539 27.9655 7.098 27.6855 6.72C27.4195 6.342 27.0695 6.041 26.6355 5.817C26.2015 5.579 25.6765 5.46 25.0605 5.46C24.4585 5.46 23.9475 5.579 23.5275 5.817C23.1075 6.055 22.7715 6.37 22.5195 6.762C22.2675 7.154 22.0855 7.602 21.9735 8.106C21.8615 8.61 21.8055 9.128 21.8055 9.66ZM30.2055 14.994H28.4205V13.524H28.3785C28.0845 14.126 27.6225 14.56 26.9925 14.826C26.3625 15.092 25.6695 15.225 24.9135 15.225C24.0735 15.225 23.3385 15.071 22.7085 14.763C22.0925 14.455 21.5745 14.042 21.1545 13.524C20.7485 13.006 20.4405 12.404 20.2305 11.718C20.0205 11.032 19.9155 10.304 19.9155 9.534C19.9155 8.764 20.0135 8.036 20.2095 7.35C20.4195 6.664 20.7275 6.069 21.1335 5.565C21.5535 5.047 22.0715 4.641 22.6875 4.347C23.3175 4.039 24.0455 3.885 24.8715 3.885C25.1515 3.885 25.4525 3.913 25.7745 3.969C26.0965 4.025 26.4185 4.123 26.7405 4.263C27.0625 4.389 27.3635 4.564 27.6435 4.788C27.9375 4.998 28.1825 5.264 28.3785 5.586H28.4205V-5.96046e-08H30.2055V14.994ZM40.4908 8.526C40.4628 8.106 40.3648 7.707 40.1968 7.329C40.0428 6.951 39.8258 6.629 39.5458 6.363C39.2798 6.083 38.9578 5.866 38.5798 5.712C38.2158 5.544 37.8098 5.46 37.3618 5.46C36.8998 5.46 36.4798 5.544 36.1018 5.712C35.7378 5.866 35.4228 6.083 35.1568 6.363C34.8908 6.643 34.6808 6.972 34.5268 7.35C34.3728 7.714 34.2818 8.106 34.2538 8.526H40.4908ZM42.2128 11.55C41.9748 12.768 41.4498 13.685 40.6378 14.301C39.8258 14.917 38.8038 15.225 37.5718 15.225C36.7038 15.225 35.9478 15.085 35.3038 14.805C34.6738 14.525 34.1418 14.133 33.7078 13.629C33.2738 13.125 32.9448 12.523 32.7208 11.823C32.5108 11.123 32.3918 10.36 32.3638 9.534C32.3638 8.708 32.4898 7.952 32.7418 7.266C32.9938 6.58 33.3438 5.985 33.7918 5.481C34.2538 4.977 34.7928 4.585 35.4088 4.305C36.0388 4.025 36.7248 3.885 37.4668 3.885C38.4328 3.885 39.2308 4.088 39.8608 4.494C40.5048 4.886 41.0158 5.39 41.3938 6.006C41.7858 6.622 42.0518 7.294 42.1918 8.022C42.3458 8.75 42.4088 9.443 42.3808 10.101H34.2538C34.2398 10.577 34.2958 11.032 34.4218 11.466C34.5478 11.886 34.7508 12.264 35.0308 12.6C35.3108 12.922 35.6678 13.181 36.1018 13.377C36.5358 13.573 37.0468 13.671 37.6348 13.671C38.3908 13.671 39.0068 13.496 39.4828 13.146C39.9728 12.796 40.2948 12.264 40.4488 11.55H42.2128ZM52.5538 4.137H54.7168V5.712H52.5538V12.453C52.5538 12.663 52.5678 12.831 52.5958 12.957C52.6378 13.083 52.7078 13.181 52.8058 13.251C52.9038 13.321 53.0368 13.37 53.2048 13.398C53.3868 13.412 53.6178 13.419 53.8978 13.419H54.7168V14.994H53.3518C52.8898 14.994 52.4908 14.966 52.1548 14.91C51.8328 14.84 51.5668 14.721 51.3568 14.553C51.1608 14.385 51.0138 14.147 50.9158 13.839C50.8178 13.531 50.7688 13.125 50.7688 12.621V5.712H48.9208V4.137H50.7688V0.882H52.5538V4.137ZM58.0018 9.576C58.0018 10.234 58.0858 10.822 58.2538 11.34C58.4358 11.844 58.6808 12.271 58.9888 12.621C59.2968 12.957 59.6538 13.216 60.0598 13.398C60.4798 13.58 60.9208 13.671 61.3828 13.671C61.8448 13.671 62.2788 13.58 62.6848 13.398C63.1048 13.216 63.4688 12.957 63.7768 12.621C64.0848 12.271 64.3228 11.844 64.4908 11.34C64.6728 10.822 64.7638 10.234 64.7638 9.576C64.7638 8.918 64.6728 8.337 64.4908 7.833C64.3228 7.315 64.0848 6.881 63.7768 6.531C63.4688 6.181 63.1048 5.915 62.6848 5.733C62.2788 5.551 61.8448 5.46 61.3828 5.46C60.9208 5.46 60.4798 5.551 60.0598 5.733C59.6538 5.915 59.2968 6.181 58.9888 6.531C58.6808 6.881 58.4358 7.315 58.2538 7.833C58.0858 8.337 58.0018 8.918 58.0018 9.576ZM56.1118 9.576C56.1118 8.778 56.2238 8.036 56.4478 7.35C56.6718 6.65 57.0078 6.048 57.4558 5.544C57.9038 5.026 58.4568 4.62 59.1148 4.326C59.7728 4.032 60.5288 3.885 61.3828 3.885C62.2508 3.885 63.0068 4.032 63.6508 4.326C64.3088 4.62 64.8618 5.026 65.3098 5.544C65.7578 6.048 66.0938 6.65 66.3178 7.35C66.5418 8.036 66.6538 8.778 66.6538 9.576C66.6538 10.374 66.5418 11.116 66.3178 11.802C66.0938 12.488 65.7578 13.09 65.3098 13.608C64.8618 14.112 64.3088 14.511 63.6508 14.805C63.0068 15.085 62.2508 15.225 61.3828 15.225C60.5288 15.225 59.7728 15.085 59.1148 14.805C58.4568 14.511 57.9038 14.112 57.4558 13.608C57.0078 13.09 56.6718 12.488 56.4478 11.802C56.2238 11.116 56.1118 10.374 56.1118 9.576ZM83.5912 14.994H81.9112V13.272H81.8692C81.4912 13.944 81.0082 14.441 80.4202 14.763C79.8322 15.071 79.1392 15.225 78.3412 15.225C77.6272 15.225 77.0322 15.134 76.5562 14.952C76.0802 14.756 75.6952 14.483 75.4012 14.133C75.1072 13.783 74.8972 13.37 74.7712 12.894C74.6592 12.404 74.6032 11.865 74.6032 11.277V4.137H76.3882V11.487C76.3882 12.159 76.5842 12.691 76.9762 13.083C77.3682 13.475 77.9072 13.671 78.5932 13.671C79.1392 13.671 79.6082 13.587 80.0002 13.419C80.4062 13.251 80.7422 13.013 81.0082 12.705C81.2742 12.397 81.4702 12.04 81.5962 11.634C81.7362 11.214 81.8062 10.759 81.8062 10.269V4.137H83.5912V14.994ZM86.2721 4.137H87.9521V5.859H87.9941C88.7361 4.543 89.9121 3.885 91.5221 3.885C92.2361 3.885 92.8311 3.983 93.3071 4.179C93.7831 4.375 94.1681 4.648 94.4621 4.998C94.7561 5.348 94.9591 5.768 95.0711 6.258C95.1971 6.734 95.2601 7.266 95.2601 7.854V14.994H93.4751V7.644C93.4751 6.972 93.2791 6.44 92.8871 6.048C92.4951 5.656 91.9561 5.46 91.2701 5.46C90.7241 5.46 90.2481 5.544 89.8421 5.712C89.4501 5.88 89.1211 6.118 88.8551 6.426C88.5891 6.734 88.3861 7.098 88.2461 7.518C88.1201 7.924 88.0571 8.372 88.0571 8.862V14.994H86.2721V4.137ZM98.046 -5.96046e-08H99.831V14.994H98.046V-5.96046e-08ZM103.898 9.576C103.898 10.234 103.982 10.822 104.15 11.34C104.332 11.844 104.577 12.271 104.885 12.621C105.193 12.957 105.55 13.216 105.956 13.398C106.376 13.58 106.817 13.671 107.279 13.671C107.741 13.671 108.175 13.58 108.581 13.398C109.001 13.216 109.365 12.957 109.673 12.621C109.981 12.271 110.219 11.844 110.387 11.34C110.569 10.822 110.66 10.234 110.66 9.576C110.66 8.918 110.569 8.337 110.387 7.833C110.219 7.315 109.981 6.881 109.673 6.531C109.365 6.181 109.001 5.915 108.581 5.733C108.175 5.551 107.741 5.46 107.279 5.46C106.817 5.46 106.376 5.551 105.956 5.733C105.55 5.915 105.193 6.181 104.885 6.531C104.577 6.881 104.332 7.315 104.15 7.833C103.982 8.337 103.898 8.918 103.898 9.576ZM102.008 9.576C102.008 8.778 102.12 8.036 102.344 7.35C102.568 6.65 102.904 6.048 103.352 5.544C103.8 5.026 104.353 4.62 105.011 4.326C105.669 4.032 106.425 3.885 107.279 3.885C108.147 3.885 108.903 4.032 109.547 4.326C110.205 4.62 110.758 5.026 111.206 5.544C111.654 6.048 111.99 6.65 112.214 7.35C112.438 8.036 112.55 8.778 112.55 9.576C112.55 10.374 112.438 11.116 112.214 11.802C111.99 12.488 111.654 13.09 111.206 13.608C110.758 14.112 110.205 14.511 109.547 14.805C108.903 15.085 108.147 15.225 107.279 15.225C106.425 15.225 105.669 15.085 105.011 14.805C104.353 14.511 103.8 14.112 103.352 13.608C102.904 13.09 102.568 12.488 102.344 11.802C102.12 11.116 102.008 10.374 102.008 9.576ZM122.026 7.623C121.886 6.937 121.592 6.405 121.144 6.027C120.696 5.649 120.094 5.46 119.338 5.46C118.694 5.46 118.155 5.579 117.721 5.817C117.287 6.055 116.937 6.37 116.671 6.762C116.419 7.154 116.237 7.609 116.125 8.127C116.013 8.631 115.957 9.156 115.957 9.702C115.957 10.206 116.013 10.696 116.125 11.172C116.251 11.648 116.44 12.075 116.692 12.453C116.944 12.817 117.273 13.111 117.679 13.335C118.085 13.559 118.568 13.671 119.128 13.671C120.01 13.671 120.696 13.44 121.186 12.978C121.69 12.516 121.998 11.865 122.11 11.025H123.937C123.741 12.369 123.237 13.405 122.425 14.133C121.627 14.861 120.535 15.225 119.149 15.225C118.323 15.225 117.588 15.092 116.944 14.826C116.314 14.56 115.782 14.182 115.348 13.692C114.928 13.202 114.606 12.621 114.382 11.949C114.172 11.263 114.067 10.514 114.067 9.702C114.067 8.89 114.172 8.134 114.382 7.434C114.592 6.72 114.907 6.104 115.327 5.586C115.761 5.054 116.3 4.641 116.944 4.347C117.588 4.039 118.337 3.885 119.191 3.885C119.807 3.885 120.381 3.962 120.913 4.116C121.459 4.256 121.935 4.48 122.341 4.788C122.761 5.096 123.104 5.488 123.37 5.964C123.636 6.426 123.804 6.979 123.874 7.623H122.026ZM126.039 -5.96046e-08H127.824V8.883L132.78 4.137H135.174L130.869 8.085L135.489 14.994H133.221L129.504 9.324L127.824 10.878V14.994H126.039V-5.96046e-08Z" fill="var(--fill-0, black)"/>
</svg>
