<svg width="512" height="512" viewBox="0 0 512 512" fill="none" xmlns="http://www.w3.org/2000/svg">
<g clip-path="url(#clip0_88_20)">
<path d="M8.3252 0H0V512H8.3252V0Z" fill="#D9D9D9"/>
<path d="M16.6505 0H12.4879V512H16.6505V0Z" fill="#D9D9D9"/>
<path d="M29.1382 0H24.9756V512H29.1382V0Z" fill="#D9D9D9"/>
<path d="M49.9513 0H45.7887V512H49.9513V0Z" fill="#D9D9D9"/>
<path d="M70.7643 0H54.1139V512H70.7643V0Z" fill="#D9D9D9"/>
<path d="M83.2521 0H79.0895V512H83.2521V0Z" fill="#D9D9D9"/>
<path d="M95.7399 0H91.5773V512H95.7399V0Z" fill="#D9D9D9"/>
<path d="M108.228 0H104.065V512H108.228V0Z" fill="#D9D9D9"/>
<path d="M120.715 0H112.39V512H120.715V0Z" fill="#D9D9D9"/>
<path d="M141.529 0H137.366V512H141.529V0Z" fill="#D9D9D9"/>
<path d="M154.016 0H149.854V512H154.016V0Z" fill="#D9D9D9"/>
<path d="M178.992 0H170.667V512H178.992V0Z" fill="#D9D9D9"/>
<path d="M187.317 0H183.155V512H187.317V0Z" fill="#D9D9D9"/>
<path d="M199.805 0H195.642V512H199.805V0Z" fill="#D9D9D9"/>
<path d="M224.781 0H208.13V512H224.781V0Z" fill="#D9D9D9"/>
<path d="M233.106 0H228.943V512H233.106V0Z" fill="#D9D9D9"/>
<path d="M245.594 0H241.431V512H245.594V0Z" fill="#D9D9D9"/>
<path d="M258.081 0H249.756V512H258.081V0Z" fill="#D9D9D9"/>
<path d="M291.382 0H274.732V512H291.382V0Z" fill="#D9D9D9"/>
<path d="M308.033 0H295.545V512H308.033V0Z" fill="#D9D9D9"/>
<path d="M316.358 0H312.195V512H316.358V0Z" fill="#D9D9D9"/>
<path d="M324.683 0H320.52V512H324.683V0Z" fill="#D9D9D9"/>
<path d="M337.171 0H333.008V512H337.171V0Z" fill="#D9D9D9"/>
<path d="M349.659 0H341.333V512H349.659V0Z" fill="#D9D9D9"/>
<path d="M374.634 0H366.309V512H374.634V0Z" fill="#D9D9D9"/>
<path d="M395.447 0H391.285V512H395.447V0Z" fill="#D9D9D9"/>
<path d="M403.772 0H399.61V512H403.772V0Z" fill="#D9D9D9"/>
<path d="M420.423 0H412.098V512H420.423V0Z" fill="#D9D9D9"/>
<path d="M432.911 0H424.585V512H432.911V0Z" fill="#D9D9D9"/>
<path d="M453.724 0H445.398V512H453.724V0Z" fill="#D9D9D9"/>
<path d="M466.211 0H457.886V512H466.211V0Z" fill="#D9D9D9"/>
<path d="M491.187 0H478.699V512H491.187V0Z" fill="#D9D9D9"/>
<path d="M499.512 0H495.35V512H499.512V0Z" fill="#D9D9D9"/>
<path d="M512 0H503.675V512H512V0Z" fill="#D9D9D9"/>
</g>
<defs>
<clipPath id="clip0_88_20">
<rect width="512" height="512" fill="white"/>
</clipPath>
</defs>
</svg>
