<svg width="1106" height="1057" viewBox="0 0 1106 1057" fill="none" xmlns="http://www.w3.org/2000/svg">
<path d="M861.369 247.228C861.333 247.353 861.307 247.481 861.261 247.604C859.745 251.632 849.864 263.106 846.718 267.154L753.594 387.119C743.695 399.893 734.093 413.073 723.875 425.598C722.562 427.213 720.881 428.772 718.881 429.546C716.653 430.402 714.04 429.336 711.921 428.638C704.881 426.322 697.988 423.362 691.082 420.698L651.906 405.611L534.427 360.602C545.858 356.025 601.362 338.802 605.729 335.035C606.49 327.907 583.263 258.01 579.257 247.097C559.698 193.807 520.081 115.298 463.736 90.5882C440.364 80.3359 410.784 80.8487 386.638 89.503C350.339 104.693 326.467 141.137 309.025 173.841C304.669 182.005 301.006 193.251 294.943 200.095C301.777 180.307 308.826 160.956 319.033 142.447C337.081 109.726 364.647 80.401 402.202 68.9848C411.406 66.1872 420.725 64.6062 430.285 63.789C440.123 62.9481 450.194 63.2456 460.058 63.101C474.419 62.8583 488.778 62.5148 503.136 62.0705L562.821 60.5274C579.94 60.1498 597.226 59.4249 614.212 61.5247C616.153 61.7582 618.086 62.034 620.012 62.3523C621.938 62.6705 623.855 63.0309 625.763 63.4334C627.67 63.836 629.566 64.2803 631.451 64.7664C633.336 65.2525 635.207 65.7797 637.066 66.3481C638.924 66.9167 640.767 67.5259 642.596 68.1756C644.423 68.8254 646.234 69.5151 648.028 70.2447C649.823 70.9746 651.598 71.7435 653.354 72.5516C655.11 73.3596 656.845 74.2062 658.56 75.0912C705.829 99.3213 745.984 162.183 765.542 208.712C774.168 229.231 780.306 250.595 786.793 271.837L837.542 254.837C845.075 252.311 853.599 248.522 861.369 247.228Z" fill="#D9D9D9"/>
<path d="M66.109 398.261L254.566 406.441C259.134 406.637 294.045 407.339 295.758 409.432C298.711 413.045 354.226 585.454 358.513 603.17C337.141 588.239 316.046 572.896 294.554 558.123C279.134 580.824 262.88 602.984 248.834 626.511C218.877 676.687 184.858 755.549 197.342 813.929C203.414 842.333 222.318 870.719 247.73 886.303C279.493 905.784 321.407 905.361 357.863 900.547C368.161 899.185 378.681 896.143 388.983 895.563C341.847 911.871 291.7 920.412 245.157 899.091C243.438 898.295 241.738 897.463 240.056 896.598C238.374 895.732 236.713 894.831 235.071 893.895C233.43 892.961 231.81 891.994 230.212 890.992C228.615 889.991 227.04 888.957 225.489 887.889C223.939 886.824 222.412 885.727 220.909 884.596C219.409 883.467 217.932 882.308 216.48 881.119C215.031 879.929 213.609 878.709 212.214 877.46C210.818 876.211 209.452 874.933 208.114 873.626C198.237 864.073 190.116 853.049 181.694 842.32L151.831 804.562L113.342 756.379C104.751 745.626 95.7392 734.999 88.2052 723.512C86.3256 720.674 84.5391 717.783 82.8454 714.838C81.1491 711.895 79.5481 708.902 78.0424 705.859C76.534 702.817 75.124 699.733 73.8122 696.605C72.5005 693.477 71.2874 690.314 70.173 687.115C69.2498 684.457 68.2996 681.708 67.6804 678.958L67.2567 679.106L64.6251 668.455L65.0606 668.442C51.8859 607.669 81.534 522.688 116.094 471.285C121.761 462.998 127.511 454.765 133.342 446.585L66.109 398.261ZM65.0606 668.442L64.6251 668.455L67.2567 679.106L67.6804 678.958C66.8922 675.437 65.942 671.939 65.0606 668.442Z" fill="#D9D9D9"/>
<path d="M1045.62 548.718L1046.48 552.204C1046.59 555.81 1047.62 559.597 1048.11 563.197C1048.36 565.048 1048.57 566.906 1048.72 568.769C1048.87 570.633 1048.97 572.499 1049.02 574.368C1049.06 576.237 1049.06 578.108 1049 579.98C1048.94 581.852 1048.83 583.723 1048.67 585.592C1048.51 587.278 1048.31 588.96 1048.08 590.64C1047.84 592.321 1047.57 593.996 1047.27 595.665C1046.96 597.335 1046.62 598.998 1046.24 600.653C1045.86 602.312 1045.45 603.962 1045 605.604C1044.55 607.246 1044.07 608.88 1043.55 610.505C1043.03 612.127 1042.47 613.739 1041.88 615.341C1041.29 616.943 1040.67 618.534 1040.01 620.112C1039.35 621.691 1038.66 623.257 1037.93 624.81C1032.29 637.109 1024.72 648.699 1017.75 660.354L986.15 713.324L953.685 768.283C945.526 782.159 937.747 796.281 928.065 809.265C925.553 812.638 922.937 815.935 920.216 819.156C917.496 822.379 914.676 825.519 911.756 828.573C908.838 831.631 905.825 834.6 902.719 837.48C899.613 840.361 896.419 843.147 893.137 845.838C890.939 847.623 888.708 849.368 886.445 851.074C884.182 852.783 881.888 854.449 879.562 856.073C877.237 857.699 874.882 859.285 872.498 860.828C870.113 862.372 867.701 863.874 865.262 865.334C862.822 866.794 860.356 868.21 857.864 869.583C855.371 870.956 852.854 872.283 850.312 873.564C847.771 874.849 845.207 876.089 842.621 877.284C840.034 878.476 837.426 879.624 834.797 880.726C780.087 904.109 698.019 916.86 638.89 917.975C614.974 918.422 591.597 916.729 567.833 915.04C561.649 944.021 555.403 973.043 548.724 1001.93L445.433 821.472C440.42 812.703 435.115 803.99 430.427 795.06C429.525 793.339 427.697 790.329 427.988 788.408C428.854 786.779 430.084 785.697 431.497 784.509C444.672 773.432 458.364 762.85 471.764 752.027L600.017 648.33C608.482 641.478 616.827 633.916 625.869 627.82L608.222 709.857C707.333 716.645 813.688 720.861 909.966 690.486C931.982 683.537 953.744 675.02 973.045 662.356C1001.47 643.706 1024.95 614.661 1031.66 581.803C1039.91 541.468 1011.41 499.636 985.465 470.9C981.631 466.566 977.64 462.37 973.492 458.312C969.192 454.051 964.399 449.86 960.951 444.91L960.508 444.267C966.612 447.674 972.471 452.699 977.91 457.018C1001.38 475.667 1022.16 497.031 1035.75 523.562C1039.88 531.628 1042.02 540.107 1045.46 548.364L1045.62 548.718Z" fill="#D9D9D9"/>
</svg>
