<svg width="512" height="512" viewBox="0 0 512 512" fill="none" xmlns="http://www.w3.org/2000/svg">
<path d="M452.281 4.72827H479.008L493.207 347.863L495.713 413.383H496.548L489.031 140.496V4.72827H512V507.272H485.273L471.074 164.137L468.568 98.6174H467.733L475.25 371.504V507.272H452.281V4.72827Z" fill="#D9D9D9"/>
<path d="M399.547 4.72827H435.462L450.079 507.272H425.022L419.593 272.211L417.922 95.2401H417.087L415.834 272.211L410.405 507.272H385.348L399.547 4.72827ZM407.9 402.575H427.945V439.726H407.482L407.9 402.575Z" fill="#D9D9D9"/>
<path d="M304.647 4.72827H334.298L343.068 272.887L343.486 342.459H344.321L344.738 272.887L353.508 4.72827H383.159V507.272H360.19V377.583L367.707 98.6174H366.872L365.619 135.092L355.179 418.786H332.628L322.187 135.092L320.934 98.6174H320.099L327.616 377.583V507.272H304.647V4.72827Z" fill="#D9D9D9"/>
<path d="M251.914 4.72827H287.828L302.445 507.272H277.388L271.959 272.211L270.289 95.2401H269.453L268.201 272.211L262.772 507.272H237.715L251.914 4.72827ZM260.266 402.575H280.311V439.726H259.848L260.266 402.575Z" fill="#D9D9D9"/>
<path d="M181.483 4.72827H208.628C217.259 4.72827 223.941 8.55588 228.674 16.2111C233.407 23.8663 235.773 34.8989 235.773 49.3087V234.385C235.773 243.391 234.66 250.596 232.432 256C230.205 261.404 225.89 265.456 219.486 268.158V268.834C224.498 270.185 228.117 272.436 230.344 275.588C232.572 278.29 233.964 282.568 234.521 288.422C235.356 294.276 235.773 303.282 235.773 315.441V443.778C235.773 457.288 235.913 469.446 236.191 480.253C236.469 491.061 237.026 500.067 237.861 507.272H212.805C212.526 502.318 212.108 494.213 211.552 482.955C210.995 471.247 210.716 459.089 210.716 446.48V301.931C210.716 300.13 210.577 298.554 210.299 297.203C210.299 295.402 210.02 294.276 209.464 293.826C208.907 292.925 208.072 292.475 206.958 292.475H206.54V507.272H181.483V4.72827ZM208.211 254.649C209.046 254.649 209.603 254.199 209.881 253.298C210.438 251.947 210.716 250.146 210.716 247.894V49.3087C210.716 47.0572 210.438 45.256 209.881 43.905C209.603 42.5541 209.046 41.8787 208.211 41.8787H206.54V254.649H208.211Z" fill="#D9D9D9"/>
<path d="M123.164 4.72827H149.056C158.522 4.72827 165.622 8.78104 170.355 16.8866C175.087 24.5418 177.454 36.0246 177.454 51.3351V197.235C177.454 207.592 176.34 215.472 174.113 220.876C172.164 225.829 168.406 229.207 162.837 231.008V231.683C168.406 233.485 172.164 237.087 174.113 242.491C176.34 247.444 177.454 254.874 177.454 264.781V468.095C177.454 477.101 176.48 484.531 174.531 490.385C172.582 496.239 169.519 500.517 165.343 503.219C161.445 505.921 156.295 507.272 149.891 507.272H123.164V4.72827ZM149.891 470.121C151.005 470.121 151.701 469.896 151.979 469.446C152.258 468.545 152.397 466.294 152.397 462.691V263.43C152.397 260.278 152.119 258.026 151.562 256.675C151.283 254.874 150.727 253.974 149.891 253.974H148.221V470.121H149.891ZM149.891 216.823C150.727 216.823 151.283 215.697 151.562 213.446C152.119 211.194 152.397 207.817 152.397 203.314V49.3087C152.397 47.5075 152.258 46.1566 151.979 45.256C151.979 43.905 151.701 43.0044 151.144 42.5541C150.866 42.1038 150.448 41.8787 149.891 41.8787H148.221V216.823H149.891Z" fill="#D9D9D9"/>
<path d="M70.4302 4.72827H106.345L120.962 507.272H95.9047L90.4757 272.211L88.8053 95.2401H87.9701L86.7172 272.211L81.2882 507.272H56.2313L70.4302 4.72827ZM78.7825 402.575H98.8281V439.726H78.3649L78.7825 402.575Z" fill="#D9D9D9"/>
<path d="M26.3098 512C21.02 512 16.287 510.199 12.1109 506.596C8.21311 502.994 5.15059 497.815 2.92331 491.061C0.974436 484.306 0 476.426 0 467.42V302.607H25.0569V467.42C25.0569 468.77 25.0569 470.121 25.0569 471.472C25.3354 472.373 25.6138 473.273 25.8922 474.174C26.1706 474.624 26.5882 474.85 27.145 474.85C27.7018 474.85 28.1195 474.174 28.3979 472.823C28.9547 471.472 29.2331 469.671 29.2331 467.42V299.905C29.2331 292.7 28.6763 286.846 27.5626 282.343C26.7274 277.39 25.4746 273.337 23.8041 270.185C22.1336 266.582 20.1848 263.205 17.9575 260.053C17.6791 259.602 17.4007 259.377 17.1222 259.377C17.1222 258.927 16.983 258.477 16.7046 258.026C16.7046 258.026 16.5654 258.026 16.287 258.026C16.287 257.576 16.287 257.351 16.287 257.351C12.9461 252.848 10.162 248.345 7.9347 243.842C5.70741 239.339 3.75854 233.259 2.08808 225.604C0.696026 217.499 0 207.592 0 195.884V43.905C0 34.8989 0.974436 27.0185 2.92331 20.2639C5.15059 13.5092 8.21311 8.55585 12.1109 5.4037C16.287 1.80124 21.02 0 26.3098 0C34.9405 0 41.7616 4.05277 46.773 12.1583C51.7843 20.2639 54.29 30.8461 54.29 43.905V192.507H29.2331V43.905C29.2331 41.6535 28.9547 40.0774 28.3979 39.1768C28.1195 38.2762 27.7018 37.8258 27.145 37.8258C26.8666 37.8258 26.449 38.051 25.8922 38.5013C25.6138 38.9516 25.3354 39.6271 25.0569 40.5277C25.0569 41.4283 25.0569 42.5541 25.0569 43.905V193.182C25.0569 199.937 25.4746 205.791 26.3098 210.744C27.4234 215.247 28.6763 219.075 30.0683 222.227C31.7388 225.379 33.8269 228.756 36.3326 232.359C36.611 232.809 36.7502 233.259 36.7502 233.71C37.0286 233.71 37.307 233.935 37.5854 234.385C41.4832 240.239 44.5457 245.643 46.773 250.596C49.0002 255.099 50.8099 260.953 52.202 268.158C53.594 275.363 54.29 284.369 54.29 295.177V467.42C54.29 476.426 53.1764 484.306 50.9491 491.061C48.7218 497.815 45.3809 502.994 40.9263 506.596C36.7502 510.199 31.878 512 26.3098 512Z" fill="#D9D9D9"/>
</svg>
