<svg preserveAspectRatio="none" width="100%" height="100%" overflow="visible" style="display: block;" viewBox="0 0 29 12.5" fill="none" xmlns="http://www.w3.org/2000/svg">
<path id="Shape" fill-rule="evenodd" clip-rule="evenodd" d="M6.00004 0C8.00004 0 10 3 9.00004 3.5C8.50968 3.74518 8.13955 3.269 7.71278 2.71996C7.26923 2.14933 6.7645 1.5 6.00004 1.5C4.74508 1.5 3.14013 4.29988 2.64926 5.21464C2.57896 5.34565 2.67497 5.5 2.82365 5.5C3.18057 5.5 3.5331 5.433 3.87897 5.34484C4.74156 5.12497 5.9125 5 7.49999 5C9.18537 5 10.4013 5.14085 11.2771 5.38659C11.3022 5.39363 11.3273 5.40069 11.3523 5.40774C11.6469 5.49064 11.9418 5.57363 12.2436 5.62393L13.1848 5.7808C14.0556 5.92593 14.9444 5.92593 15.8152 5.7808L16.7564 5.62393C17.0582 5.57364 17.3531 5.49064 17.6477 5.40775C17.6727 5.40069 17.6978 5.39363 17.7229 5.3866C18.5987 5.14086 19.8146 5 21.5 5C23.0875 5 24.2584 5.12497 25.121 5.34484C25.4669 5.433 25.8194 5.5 26.1764 5.5C26.325 5.5 26.421 5.34565 26.3507 5.21464C25.8599 4.29988 24.2549 1.5 23 1.5C22.2355 1.5 21.7308 2.14933 21.2872 2.71996C20.8604 3.269 20.4903 3.74518 20 3.5C19 3 21 0 23 0C24.4711 0 26.0518 2.00327 27.2724 3.55028L27.3234 3.61481C27.4087 3.72292 27.5064 3.84128 27.6108 3.96778C28.199 4.68031 29.0001 5.65076 29 6.5C28.9999 6.99142 28.6757 7.53896 28.2482 7.89067C27.8718 8.20033 27.4974 8.6093 27.4092 9.08864C27.0729 10.916 25.6928 12.5 21.5 12.5C18.6753 12.5 15.8466 11.7099 15.5297 8.77194C15.483 8.33892 15.3252 7.87573 14.9056 7.75927C14.6408 7.6858 14.3591 7.6858 14.0944 7.75927C13.6747 7.87575 13.517 8.33892 13.4703 8.77194C13.1534 11.7099 10.3246 12.5 7.49999 12.5C3.30719 12.5 1.92714 10.916 1.59084 9.08864C1.50262 8.6093 1.12819 8.20033 0.751808 7.89067C0.324303 7.53896 7.81587e-05 6.99142 1.70459e-08 6.5C-0.000134928 5.65076 0.800985 4.68031 1.38919 3.96778C1.49361 3.84128 1.59132 3.72292 1.67665 3.61481L1.72757 3.55028C2.94822 2.00327 4.52888 0 6.00004 0ZM12 8.25C12 9.17041 11.7972 9.72379 11.376 10.0998C10.9048 10.5205 9.8518 11 7.49999 11C5.14824 11 4.09522 10.5205 3.62406 10.0998C3.20287 9.72378 3.00004 9.1704 3.00004 8.25C3.00004 7.50018 3.11314 7.33287 3.32256 7.17983C3.71918 6.89 4.78826 6.5 7.49999 6.5C10.2117 6.5 11.2808 6.89 11.6775 7.17984C11.8869 7.33288 12 7.5002 12 8.25ZM17 8.25C17 9.17041 17.2028 9.72379 17.624 10.0998C18.0952 10.5205 19.1482 11 21.5 11C23.8518 11 24.9048 10.5205 25.3759 10.0998C25.7971 9.72378 26 9.1704 26 8.25C26 7.50018 25.8869 7.33287 25.6774 7.17983C25.2808 6.89 24.2117 6.5 21.5 6.5C18.7883 6.5 17.7192 6.89 17.3225 7.17984C17.1131 7.33288 17 7.5002 17 8.25Z" fill="var(--fill-0, #4A6C9B)"/>
</svg>
