<svg preserveAspectRatio="none" width="100%" height="100%" overflow="visible" style="display: block;" viewBox="0 0 24 16.1008" fill="none" xmlns="http://www.w3.org/2000/svg">
<path id="Shape" fill-rule="evenodd" clip-rule="evenodd" d="M1.75385 1.13171C2.77875 0.546143 4.32458 0 6.5 0C8.67542 0 10.2213 0.546143 11.2462 1.13171C11.5931 1.33008 11.8769 1.53076 12.1026 1.71265C12.2328 1.63013 12.3792 1.54102 12.5401 1.44836C12.7325 1.33752 12.9459 1.22156 13.1778 1.10559C14.2541 0.567383 15.7874 0 17.5 0C19.2126 0 20.7459 0.567383 21.8222 1.10559C22.366 1.37744 22.8083 1.64954 23.1172 1.85547C23.272 1.95862 23.3942 2.0459 23.4799 2.10901C23.5228 2.14062 23.5566 2.16626 23.5809 2.18494L23.6101 2.20764L23.6193 2.21484L23.6224 2.21729L23.6237 2.21838L23.6129 2.2323L23.6247 2.21912L24 2.51941V15.5L22.4048 14.3036L22.4039 14.303L22.3985 14.2991C22.3905 14.2935 22.3752 14.2827 22.3525 14.2676C22.3073 14.2374 22.233 14.1898 22.1307 14.1304C21.926 14.0116 21.6102 13.8461 21.1911 13.6785C20.3538 13.3435 19.1047 13 17.5 13C15.9971 13 14.8123 13.5353 13.9922 14.082C13.5823 14.3553 13.2696 14.6277 13.0626 14.828C13.0021 14.8866 12.951 14.9386 12.9095 14.9823C12.8802 15.0131 12.8557 15.0397 12.8361 15.0615C12.8123 15.0879 12.7958 15.1072 12.7865 15.118L12.7784 15.1278L12 16.1008L11.2219 15.1282L11.2135 15.118L11.1966 15.0984L11.1639 15.0615C11.1164 15.0088 11.0405 14.9279 10.9374 14.828C10.7304 14.6277 10.4177 14.3553 10.0078 14.082C9.18768 13.5353 8.00293 13 6.5 13C4.89526 13 3.64624 13.3435 2.8089 13.6785C2.64532 13.7439 2.4975 13.809 2.36584 13.8711C2.16022 13.9681 1.99414 14.058 1.86932 14.1304C1.76703 14.1898 1.69275 14.2374 1.64746 14.2676C1.62482 14.2827 1.6095 14.2935 1.6015 14.2991L1.59607 14.303L0 15.5V2.66663L0.200012 2.40002L0.300049 2.47424C0.200562 2.39917 0.200745 2.39893 0.200745 2.39893L0.201599 2.39795L0.203308 2.39563L0.207214 2.3905L0.216797 2.37817C0.223999 2.3689 0.232788 2.35779 0.243286 2.34497C0.264221 2.31934 0.291809 2.28662 0.326355 2.24805C0.395325 2.17078 0.492004 2.06958 0.618591 1.95264C0.871887 1.71887 1.24481 1.42261 1.75385 1.13171ZM2 3.39966V11.8483L2.0661 11.8215C3.10376 11.4065 4.60474 11 6.5 11C8.42444 11 9.94781 11.6636 11 12.3412V3.39966C10.8452 3.25977 10.6006 3.06641 10.2538 2.86829C9.52875 2.45386 8.32458 2 6.5 2C4.67542 2 3.47125 2.45386 2.74615 2.86829C2.65674 2.91943 2.5741 2.97021 2.49805 3.01978C2.27924 3.1626 2.11493 3.2959 2 3.39966ZM13 3.5144V12.3412C14.0522 11.6636 15.5756 11 17.5 11C19.3953 11 20.8962 11.4065 21.9339 11.8215L22 11.8483V3.5144C21.7466 3.34583 21.3793 3.12024 20.9278 2.89441C20.0041 2.43262 18.7874 2 17.5 2C16.2126 2 14.9959 2.43262 14.0722 2.89441C13.6207 3.12024 13.2534 3.34583 13 3.5144Z" fill="var(--fill-0, #4A6C9B)"/>
</svg>
