<svg preserveAspectRatio="none" width="100%" height="100%" overflow="visible" style="display: block;" viewBox="0 0 9 12" fill="none" xmlns="http://www.w3.org/2000/svg">
<g id="Shape" filter="url(#filter0_d_0_143)">
<path fill-rule="evenodd" clip-rule="evenodd" d="M8 5C8.55229 5 9 5.44772 9 6V9C9 10.1046 8.10457 11 7 11H2C0.89543 11 0 10.1046 0 9V6C0 5.44772 0.447715 5 1 5V3.5C1 1.567 2.567 0 4.5 0C6.433 0 8 1.567 8 3.5V5ZM3 5H6V3.5C6 2.67157 5.32843 2 4.5 2C3.67157 2 3 2.67157 3 3.5V5Z" fill="var(--fill-0, #1D7700)"/>
</g>
<defs>
<filter id="filter0_d_0_143" x="0" y="0" width="9" height="12" filterUnits="userSpaceOnUse" color-interpolation-filters="sRGB">
<feFlood flood-opacity="0" result="BackgroundImageFix"/>
<feColorMatrix in="SourceAlpha" type="matrix" values="0 0 0 0 0 0 0 0 0 0 0 0 0 0 0 0 0 0 127 0" result="hardAlpha"/>
<feOffset dy="1"/>
<feComposite in2="hardAlpha" operator="out"/>
<feColorMatrix type="matrix" values="0 0 0 0 1 0 0 0 0 1 0 0 0 0 1 0 0 0 0.5 0"/>
<feBlend mode="normal" in2="BackgroundImageFix" result="effect1_dropShadow_0_143"/>
<feBlend mode="normal" in="SourceGraphic" in2="effect1_dropShadow_0_143" result="shape"/>
</filter>
</defs>
</svg>
