<svg preserveAspectRatio="none" width="100%" height="100%" overflow="visible" style="display: block;" viewBox="0 0 20 18" fill="none" xmlns="http://www.w3.org/2000/svg">
<g id="Shape">
<path d="M2.5 0C1.11929 0 0 1.11929 0 2.5V11.5C0 12.8807 1.11929 14 2.5 14H4V12H2.5C2.22386 12 2 11.7761 2 11.5V2.5C2 2.22386 2.22386 2 2.5 2H12.5C12.7761 2 13 2.22386 13 2.5V3H15V2.5C15 1.11929 13.8807 0 12.5 0H2.5Z" fill="var(--fill-0, white)"/>
<path fill-rule="evenodd" clip-rule="evenodd" d="M7.5 4C6.11929 4 5 5.11929 5 6.5V15.5C5 16.8807 6.11929 18 7.5 18H17.5C18.8807 18 20 16.8807 20 15.5V6.5C20 5.11929 18.8807 4 17.5 4H7.5ZM7 6.5C7 6.22386 7.22386 6 7.5 6H17.5C17.7761 6 18 6.22386 18 6.5V15.5C18 15.7761 17.7761 16 17.5 16H7.5C7.22386 16 7 15.7761 7 15.5V6.5Z" fill="var(--fill-0, white)"/>
</g>
</svg>
