<svg preserveAspectRatio="none" width="100%" height="100%" overflow="visible" style="display: block;" viewBox="0 0 9.77819 9.77819" fill="none" xmlns="http://www.w3.org/2000/svg">
<path id="Shape" d="M0.292901 0.292899C-0.0976229 0.683423 -0.0976391 1.31657 0.292901 1.70711L3.47488 4.88909L0.292901 8.07107C-0.0976283 8.4616 -0.0976391 9.09475 0.292901 9.48529C0.683441 9.87583 1.31659 9.87582 1.70711 9.48529L4.88909 6.30331L8.07108 9.48529C8.46162 9.87583 9.09476 9.87581 9.48529 9.48529C9.87581 9.09476 9.87583 8.46161 9.48529 8.07107L6.30331 4.88909L9.48529 1.70711C9.87581 1.31659 9.87583 0.683439 9.48529 0.292899C9.09475 -0.0976411 8.4616 -0.0976249 8.07108 0.292899L4.88909 3.47488L1.70711 0.292899C1.31657 -0.0976411 0.683425 -0.0976249 0.292901 0.292899Z" fill="var(--fill-0, white)"/>
</svg>
