<svg preserveAspectRatio="none" width="100%" height="100%" overflow="visible" style="display: block;" viewBox="0 0 9.50014 9.49928" fill="none" xmlns="http://www.w3.org/2000/svg">
<g id="Search" opacity="0.3" filter="url(#filter0_d_0_3747)">
<g id="Shape" filter="url(#filter1_d_0_3747)">
<path fill-rule="evenodd" clip-rule="evenodd" d="M5.52454 5.58435C5.07776 5.84845 4.55658 6 4 6C2.34314 6 1 4.65686 1 3C1 1.34314 2.34314 0 4 0C5.65686 0 7 1.34314 7 3C7 3.55615 6.84869 4.0769 6.58496 4.52344L8.28046 6.21893C8.57336 6.51184 8.57336 6.98669 8.28046 7.2796C7.98755 7.57251 7.5127 7.57251 7.21979 7.2796L5.52454 5.58435ZM5.5 3C5.5 3.82843 4.82843 4.5 4 4.5C3.17157 4.5 2.5 3.82843 2.5 3C2.5 2.17157 3.17157 1.5 4 1.5C4.82843 1.5 5.5 2.17157 5.5 3Z" fill="var(--fill-0, white)"/>
</g>
</g>
<defs>
<filter id="filter0_d_0_3747" x="0" y="0" width="10" height="10" filterUnits="userSpaceOnUse" color-interpolation-filters="sRGB">
<feFlood flood-opacity="0" result="BackgroundImageFix"/>
<feColorMatrix in="SourceAlpha" type="matrix" values="0 0 0 0 0 0 0 0 0 0 0 0 0 0 0 0 0 0 127 0" result="hardAlpha"/>
<feOffset dy="1"/>
<feGaussianBlur stdDeviation="0.5"/>
<feComposite in2="hardAlpha" operator="out"/>
<feColorMatrix type="matrix" values="0 0 0 0 0 0 0 0 0 0 0 0 0 0 0 0 0 0 0.1 0"/>
<feBlend mode="normal" in2="BackgroundImageFix" result="effect1_dropShadow_0_3747"/>
<feBlend mode="normal" in="SourceGraphic" in2="effect1_dropShadow_0_3747" result="shape"/>
</filter>
<filter id="filter1_d_0_3747" x="0" y="0" width="9.50014" height="9.49928" filterUnits="userSpaceOnUse" color-interpolation-filters="sRGB">
<feFlood flood-opacity="0" result="BackgroundImageFix"/>
<feColorMatrix in="SourceAlpha" type="matrix" values="0 0 0 0 0 0 0 0 0 0 0 0 0 0 0 0 0 0 127 0" result="hardAlpha"/>
<feOffset dy="1"/>
<feGaussianBlur stdDeviation="0.5"/>
<feComposite in2="hardAlpha" operator="out"/>
<feColorMatrix type="matrix" values="0 0 0 0 0 0 0 0 0 0 0 0 0 0 0 0 0 0 0.1 0"/>
<feBlend mode="normal" in2="BackgroundImageFix" result="effect1_dropShadow_0_3747"/>
<feBlend mode="normal" in="SourceGraphic" in2="effect1_dropShadow_0_3747" result="shape"/>
</filter>
</defs>
</svg>
